<?xml version="1.0" encoding="UTF-8"?>
<svg id="Layer_1" data-name="Layer 1" xmlns="http://www.w3.org/2000/svg" xmlns:xlink="http://www.w3.org/1999/xlink" viewBox="0 0 2113.32 4225.61">
  <defs>
    <style>
      .cls-1 {
        fill: #f7ce58;
      }

      .cls-1, .cls-2, .cls-3, .cls-4, .cls-5 {
        stroke-width: 0px;
      }

      .cls-2 {
        fill: none;
      }

      .cls-3 {
        fill: #e46753;
      }

      .cls-6 {
        clip-path: url(#clippath);
      }

      .cls-4 {
        fill: #91ccc8;
      }

      .cls-5 {
        fill: #1f1919;
      }
    </style>
    <clipPath id="clippath">
      <circle class="cls-2" cx="971.09" cy="865.02" r="745.03"/>
    </clipPath>
  </defs>
  <g>
    <path class="cls-3" d="m971,1591.64c-98.04,0-193.13-19.2-282.64-57.06-86.47-36.57-164.13-88.93-230.82-155.63s-119.06-144.35-155.63-230.82c-37.86-89.51-57.06-184.61-57.06-282.64s19.2-193.13,57.06-282.64c36.57-86.47,88.93-164.13,155.63-230.82s144.35-119.06,230.82-155.63c89.51-37.86,184.61-57.06,282.64-57.06s193.13,19.2,282.65,57.06c86.47,36.57,164.13,88.93,230.82,155.63,66.7,66.69,119.06,144.35,155.63,230.82,37.86,89.51,57.06,184.61,57.06,282.64s-19.2,193.13-57.06,282.64c-36.57,86.47-88.93,164.13-155.63,230.82-66.69,66.69-144.35,119.05-230.82,155.63-89.51,37.86-184.61,57.06-282.65,57.06Z"/>
    <path class="cls-3" d="m971,158.23c95.5,0,188.12,18.69,275.29,55.57,41.9,17.72,82.32,39.66,120.12,65.2,37.46,25.31,72.69,54.37,104.7,86.39,32.01,32.01,61.08,67.24,86.39,104.7,25.54,37.81,47.48,78.22,65.2,120.12,36.87,87.17,55.57,179.79,55.57,275.29s-18.69,188.12-55.57,275.29c-17.72,41.9-39.66,82.32-65.2,120.12-25.31,37.46-54.37,72.69-86.39,104.7-32.01,32.01-67.24,61.08-104.7,86.39-37.81,25.54-78.22,47.48-120.12,65.2-87.17,36.87-179.79,55.57-275.29,55.57s-188.12-18.69-275.29-55.57c-41.9-17.72-82.32-39.66-120.12-65.2-37.46-25.31-72.69-54.37-104.7-86.39-32.01-32.01-61.08-67.24-86.39-104.7-25.54-37.81-47.48-78.22-65.2-120.12-36.87-87.17-55.57-179.79-55.57-275.29s18.69-188.12,55.57-275.29c17.72-41.9,39.66-82.32,65.2-120.12,25.31-37.46,54.37-72.69,86.39-104.7,32.01-32.01,67.24-61.08,104.7-86.39,37.81-25.54,78.22-47.48,120.12-65.2,87.17-36.87,179.79-55.57,275.29-55.57m0-37.77c-411.47,0-745.03,333.56-745.03,745.03s333.56,745.03,745.03,745.03,745.03-333.56,745.03-745.03S1382.47,120.46,971,120.46h0Z"/>
  </g>
  <g class="cls-6">
    <image width="901" height="1773" transform="translate(0 66.99) scale(2.35)" xlink:href="shoko sticker.png"/>
  </g>
  <path class="cls-5" d="m971,43.25c55.78,0,111.52,5.62,165.66,16.7,52.74,10.79,104.62,26.9,154.19,47.86,48.68,20.59,95.64,46.08,139.57,75.76,43.52,29.4,84.45,63.17,121.65,100.37,37.2,37.2,70.97,78.12,100.37,121.65,29.68,43.93,55.17,90.89,75.76,139.57,20.97,49.57,37.07,101.45,47.86,154.19,11.08,54.14,16.7,109.87,16.7,165.66s-5.62,111.52-16.7,165.66c-10.79,52.74-26.9,104.62-47.86,154.19-20.59,48.68-46.08,95.64-75.76,139.57-29.4,43.52-63.17,84.45-100.37,121.65-37.2,37.2-78.12,70.97-121.65,100.37-43.93,29.68-90.89,55.17-139.57,75.76-49.57,20.97-101.45,37.07-154.19,47.86-54.14,11.08-109.87,16.7-165.66,16.7s-111.52-5.62-165.66-16.7c-52.74-10.79-104.62-26.9-154.19-47.86-48.68-20.59-95.64-46.08-139.57-75.76-43.52-29.4-84.45-63.17-121.65-100.37-37.2-37.2-70.97-78.12-100.37-121.65-29.68-43.93-55.17-90.89-75.76-139.57-20.97-49.57-37.07-101.45-47.86-154.19-11.08-54.14-16.7-109.87-16.7-165.66s5.62-111.52,16.7-165.66c10.79-52.74,26.9-104.62,47.86-154.19,20.59-48.68,46.08-95.64,75.76-139.57,29.4-43.52,63.17-84.45,100.37-121.65s78.12-70.97,121.65-100.37c43.93-29.68,90.89-55.17,139.57-75.76,49.57-20.97,101.45-37.07,154.19-47.86,54.14-11.08,109.87-16.7,165.66-16.7m0-43.25C493.27,0,106,387.27,106,865s387.27,865,865,865,865-387.27,865-865S1448.73,0,971,0h0Z"/>
  <path class="cls-4" d="m971,120.46c100.6,0,198.16,19.69,289.99,58.53,44.14,18.67,86.71,41.78,126.54,68.68,39.46,26.66,76.57,57.27,110.29,91,33.72,33.72,64.34,70.83,91,110.29,26.91,39.83,50.02,82.4,68.68,126.54,38.84,91.83,58.53,189.39,58.53,289.99s-19.69,198.16-58.53,289.99c-18.67,44.14-41.78,86.71-68.68,126.54-26.66,39.46-57.27,76.57-91,110.29-33.72,33.72-70.83,64.34-110.29,91-39.83,26.91-82.4,50.02-126.54,68.68-91.83,38.84-189.39,58.53-289.99,58.53s-198.16-19.69-289.99-58.53c-44.14-18.67-86.71-41.78-126.54-68.68-39.46-26.66-76.57-57.27-110.29-91-33.72-33.72-64.34-70.83-91-110.29-26.91-39.83-50.02-82.4-68.68-126.54-38.84-91.83-58.53-189.39-58.53-289.99s19.69-198.16,58.53-289.99c18.67-44.14,41.78-86.71,68.68-126.54,26.66-39.46,57.27-76.57,91-110.29,33.72-33.72,70.83-64.34,110.29-91,39.83-26.91,82.4-50.02,126.54-68.68,91.83-38.84,189.39-58.53,289.99-58.53m0-37.77c-432.33,0-782.8,350.47-782.8,782.8s350.47,782.8,782.8,782.8,782.8-350.47,782.8-782.8S1403.33,82.69,971,82.69h0Z"/>
  <path class="cls-1" d="m971,82.69c105.7,0,208.21,20.69,304.69,61.5,46.38,19.62,91.11,43.9,132.95,72.17,41.46,28.01,80.45,60.18,115.88,95.61,35.43,35.43,67.6,74.42,95.61,115.88,28.27,41.85,52.55,86.58,72.17,132.95,40.81,96.48,61.5,198.99,61.5,304.69s-20.69,208.21-61.5,304.69c-19.61,46.38-43.9,91.11-72.17,132.95-28.01,41.46-60.18,80.45-95.61,115.88-35.43,35.43-74.42,67.6-115.88,95.61-41.85,28.27-86.58,52.55-132.95,72.17-96.48,40.81-198.99,61.5-304.69,61.5s-208.21-20.69-304.69-61.5c-46.38-19.61-91.11-43.9-132.95-72.17-41.46-28.01-80.45-60.18-115.88-95.61-35.43-35.43-67.6-74.42-95.61-115.88-28.27-41.85-52.55-86.58-72.17-132.95-40.81-96.48-61.5-198.99-61.5-304.69s20.69-208.21,61.5-304.69c19.62-46.38,43.9-91.11,72.17-132.95,28.01-41.46,60.18-80.45,95.61-115.88s74.42-67.6,115.88-95.61c41.85-28.27,86.58-52.55,132.95-72.17,96.48-40.81,198.99-61.5,304.69-61.5m0-41.2c-455.08,0-824,368.92-824,824s368.92,824,824,824,824-368.92,824-824S1426.08,41.49,971,41.49h0Z"/>
</svg>