<?xml version="1.0" encoding="UTF-8"?>
<svg id="Layer_1" data-name="Layer 1" xmlns="http://www.w3.org/2000/svg" viewBox="0 0 617.1 256.31">
  <defs>
    <style>
      .cls-1, .cls-2, .cls-3, .cls-4 {
        stroke-width: 0px;
      }

      .cls-2 {
        fill: none;
      }

      .cls-3 {
        fill: #f7ce35;
      }

      .cls-4 {
        fill: #fff;
      }
    </style>
  </defs>
  <rect class="cls-1" x="3.26" y="3.26" width="610.58" height="249.79"/>
  <g>
    <path class="cls-2" d="m332.24,55.25l3.82-1.13-3.82,1.13c-1.81.54-2.47,2.73-1.24,4.14l5.79,6.73-5.79-6.73c-1.22-1.41-.57-3.6,1.24-4.14Z"/>
    <path class="cls-2" d="m356.64,38.6c.69,0,1.36.28,1.88.81-.51-.53-1.18-.81-1.88-.81-.79,0-1.59.35-2.12,1.07l-4.35,5.87,4.35-5.87c.52-.71,1.32-1.07,2.12-1.07Z"/>
    <polygon class="cls-2" points="339.7 69.51 339.69 73.21 339.7 69.51 339.7 69.51"/>
    <path class="cls-2" d="m477.48,143.2c0-.14.02-.38.04-.74,0-.09,0-.19.02-.29l.05-.7.11-1.32s0,0,0,0l.22-2.29c.12-1.19.28-2.56.48-4.07-.74,5.58-.9,9.07-.92,9.49,0-.02,0-.02,0-.05Z"/>
    <polygon class="cls-2" points="367.27 51.16 364.18 46.99 367.27 51.16 367.27 51.16"/>
    <path class="cls-2" d="m370.61,86.95c.48,0,.92-.09,1.33-.27-.4.18-.85.28-1.33.27Z"/>
    <path class="cls-2" d="m355.85,82.17c.26-.06.52-.09.78-.09.31,0,.61.05.91.13-.3-.08-.6-.13-.91-.13-.26,0-.53.03-.79.09Z"/>
    <path class="cls-2" d="m341.72,86.82c.31.09.64.13.99.12-.35,0-.68-.03-.99-.12Z"/>
    <path class="cls-2" d="m381.4,55.4c.09.04.18.07.27.12-.08-.05-.18-.08-.27-.12Z"/>
    <path class="cls-2" d="m235.75,187.89c-9.64,0-14.4,7.07-14.4,17.03s3.32,18.32,14.4,18.32,14.4-8.36,14.4-18.32-4.76-17.03-14.4-17.03Z"/>
    <path class="cls-2" d="m303.29,188.68h-9.79v14.72h11.02c4.75,0,8.27-2.89,8.27-7.36,0-5.19-3.67-7.35-9.5-7.35Z"/>
    <path class="cls-2" d="m47.82,189.11h-9.87v32.9h9.94c9.43,0,12.46-8.44,12.46-16.45,0-10.24-3.89-16.45-12.52-16.45Z"/>
    <path class="cls-2" d="m476.64,145.16c-.26.25-.57.44-.92.58.34-.13.66-.33.92-.58Z"/>
    <path class="cls-2" d="m114.69,15.8c-.62-.22-1.3-.2-1.91.04,1.32.14,2.52.68,3.48,1.52-.28-.71-.84-1.29-1.57-1.56Z"/>
    <path class="cls-2" d="m53.59,127.89c-.01-17.5,3.15-34.39,9.4-50.2,2.18-5.5,4.64-10.77,7.33-15.83-2.98,5.34-5.46,10.65-7.5,15.83-8.1,20.48-9.54,38.91-9.54,49.51,0,.8,0,1.56.03,2.26-.73-.61-1.45-1.18-2.18-1.72.81.68,1.63,1.41,2.48,2.22-.01-.65-.02-1.34-.02-2.07Z"/>
    <path class="cls-2" d="m197.39,13.42c-.16-.13-.34-.24-.53-.33.21.13.42.27.62.42-.03-.03-.06-.06-.09-.09Z"/>
    <path class="cls-2" d="m26.78,137.08c-2.07-3.28-3.45-6.86-4.11-10.63-.32-1.84.19-3.71,1.39-5.14.42-.5.91-.92,1.45-1.26-.74.09-1.17.18-1.25.19-1.28.27-2.17,1.41-2.14,2.72.17,5.82,1.99,10.79,4.59,14.84,1.95,3.06,4.34,5.59,6.78,7.7.2.17.41.33.62.5.09-.03.17-.06.26-.09-4.63-4.09-7.09-8.01-7.58-8.84Z"/>
    <path class="cls-2" d="m486.51,99.66c.77-2.2,1.58-4.43,2.49-6.68.61-1.53,1.27-3.07,1.95-4.61-.68,1.54-1.34,3.08-1.95,4.61-.9,2.25-1.72,4.48-2.49,6.68Z"/>
    <path class="cls-2" d="m460.68,112.64c1.35,2.03,2.63,4.17,3.8,6.43,1.08,2.08,2.06,4.27,2.96,6.56-.9-2.29-1.88-4.48-2.96-6.57-1.17-2.26-2.45-4.39-3.8-6.42Z"/>
    <path class="cls-2" d="m472.09,143.59c-.62-4.4-1.54-8.49-2.7-12.32,1.16,3.83,2.08,7.93,2.69,12.33.18,1.3,1.27,2.26,2.56,2.31-1.29-.06-2.37-1.01-2.56-2.32Z"/>
    <path class="cls-2" d="m582.1,21.55c4.33-.4,8.83-.61,13.53-.61h.64c-.21,0-.43,0-.64,0-4.7,0-9.2.21-13.53.61Z"/>
    <path class="cls-2" d="m502.44,67.42c-.29.42-.55.85-.83,1.27.28-.42.55-.85.83-1.27,7.98-11.76,18.46-22.7,32.27-31.02-13.81,8.32-24.29,19.26-32.27,31.02Z"/>
    <path class="cls-2" d="m610.02,7.08c-1.05-1.03-2.46-1.66-4.04-1.66H11.12c-1.59,0-3,.64-4.04,1.66-1.03,1.05-1.66,2.46-1.66,4.04v234.06c0,1.59.64,3,1.66,4.04,1.05,1.03,2.46,1.66,4.04,1.66h594.85c1.59,0,3-.64,4.04-1.66,1.03-1.05,1.66-2.46,1.66-4.04V11.12c0-1.59-.64-3-1.66-4.04ZM202.51,108.27c2.99-1.53,9.29,4.62,14.1,13.74,4.8,9.11,6.29,17.73,3.3,19.25-2.99,1.53-9.3-4.63-14.11-13.74-4.8-9.12-6.28-17.73-3.29-19.25ZM47.25,231.54h-14.19c-4.17,0-6.91-1.66-6.91-6.93v-38.09c0-5.27,2.74-6.93,6.91-6.93h14.4c12.89,0,24.69,5.63,24.69,25.98,0,16.45-9.15,25.98-24.91,25.98Zm79.41-44.38l-14.46,24.1v15.29c0,3.54-2.31,5.92-5.9,5.92s-5.9-2.38-5.9-5.92v-15.29l-14.47-24.1c-.58-.94-1.01-2.02-1.01-3.1,0-4.04,3.67-5.41,5.97-5.41,2.81,0,4.1,1.16,5.33,3.47l10.3,18.98,10.22-18.98c1.36-2.59,2.66-3.47,5.11-3.47,2.15,0,5.83,1.37,5.83,5.41,0,1.09-.43,2.16-1.01,3.1Zm63.44,37.95c0,4.69-2.02,7.36-6.98,7.36-3.75,0-4.97-.79-6.48-3.18l-20.52-32.47h-.15v29.95c0,3.82-2.15,5.7-5.68,5.7s-5.69-1.88-5.69-5.7v-41.2c0-4.91,2.37-6.93,7.41-6.93,2.45,0,4.61.94,5.9,3.1l20.66,33.41h.15v-30.8c0-3.83,2.16-5.71,5.69-5.71s5.69,1.88,5.69,5.71v40.76Zm45.65,7.65c-18.58,0-26.21-12.12-26.21-27.85s9.22-26.56,26.21-26.56,26.2,11.33,26.2,26.56-8.49,27.85-26.2,27.85Zm70.85-20.27h-13.1v14.06c0,3.54-2.31,5.92-5.9,5.92s-5.9-2.38-5.9-5.92v-40.04c0-5.27,2.73-6.93,6.9-6.93h18.08c9.94,0,17.93,4.91,17.93,16.45,0,9.46-6.55,16.46-18,16.46Zm81.86-.44c0,14.29-8.78,20.71-22.53,20.71s-22.54-6.42-22.54-20.71v-27.49c0-3.53,2.31-5.92,5.9-5.92s5.9,2.39,5.9,5.92v28.43c0,7.07,3.97,10.24,10.73,10.24s10.72-3.17,10.72-10.24v-28.43c0-3.53,2.31-5.92,5.9-5.92s5.9,2.39,5.9,5.92v27.49Zm67.25,13.06c0,4.69-2.01,7.36-6.98,7.36-3.74,0-4.96-.79-6.48-3.18l-20.51-32.47h-.15v29.95c0,3.82-2.15,5.7-5.69,5.7s-5.69-1.88-5.69-5.7v-41.2c0-4.91,2.38-6.93,7.42-6.93,2.45,0,4.6.94,5.9,3.1l20.66,33.41h.15v-30.8c0-3.83,2.15-5.71,5.69-5.71s5.68,1.88,5.68,5.71v40.76Zm45.94-1.88c9.29,0,9.08-9.95,14.77-9.95,2.88,0,5.76,1.65,5.76,4.54,0,7.5-9.08,14.93-20.52,14.93-16.2,0-25.77-9.3-25.77-27.2,0-14.65,8.64-27.2,25.34-27.2,13.53,0,20.95,8.52,20.95,13.56,0,3.32-1.8,5.35-5.33,5.35-6.84,0-4.83-9.38-15.63-9.38-7.41,0-13.53,6.42-13.53,17.67,0,9.45,3.74,17.67,13.96,17.67Zm83.95,3.32c0,3.54-2.3,5.92-5.9,5.92s-5.9-2.38-5.9-5.92v-17.31h-21.45v17.31c0,3.54-2.31,5.92-5.9,5.92s-5.9-2.38-5.9-5.92v-41.99c0-3.53,2.3-5.92,5.9-5.92s5.9,2.39,5.9,5.92v14.72h21.45v-14.72c0-3.53,2.3-5.92,5.9-5.92s5.9,2.39,5.9,5.92v41.99Z"/>
    <path class="cls-2" d="m392.84,75.6c-.29-.04-.58-.08-.86-.11.28.04.56.07.86.11Z"/>
    <path class="cls-2" d="m383.79,69.36s.56.01,1.5.07c-.93-.05-1.47-.07-1.5-.07-.94-.02-1.77.44-2.27,1.15.5-.71,1.33-1.17,2.27-1.15Z"/>
    <path class="cls-2" d="m445.24,96.07c2.05,1.61,4.05,3.34,5.96,5.2,2,1.94,3.91,4.03,5.72,6.26-1.81-2.23-3.72-4.32-5.72-6.26-1.91-1.86-3.91-3.59-5.96-5.2Z"/>
    <path class="cls-2" d="m526.07,35.55c17.24-12.04,39.96-20.02,69.55-20.02.37,0,.74,0,1.11,0,.65,0,1.23.25,1.7.63-.46-.39-1.05-.63-1.69-.63h-1.11c-29.59,0-52.32,7.97-69.55,20.01-12.94,9.03-22.78,20.3-30.25,32.08-4.22,6.66-7.69,13.49-10.55,20.18,2.86-6.69,6.33-13.52,10.55-20.18,7.47-11.78,17.31-23.05,30.24-32.08Z"/>
    <path class="cls-2" d="m447.19,90.74c9.23,6.93,17.59,16.15,23.32,28.31,1.25,2.65,2.37,5.45,3.36,8.39,0,0,0,0,0,0-.99-2.93-2.1-5.73-3.36-8.38-5.73-12.16-14.09-21.39-23.31-28.31-13.87-10.39-29.67-15.7-42.02-18.45-1.31-.29-2.57-.55-3.8-.78,1.23.24,2.49.49,3.8.79,12.35,2.75,28.15,8.05,42.01,18.45Z"/>
    <path class="cls-2" d="m386.06,74.9l1.15.09c.22.02.46.04.71.06-.84-.08-1.57-.13-2.17-.17.11,0,.2.01.32.02Z"/>
    <path class="cls-2" d="m403.05,77.37c4.29.92,9.03,2.16,13.96,3.84,2.77.94,5.59,2.02,8.43,3.25-2.84-1.23-5.66-2.31-8.43-3.25-4.94-1.68-9.68-2.92-13.96-3.84Z"/>
    <path class="cls-2" d="m383.68,74.77h0c-.75-.02-1.42-.33-1.9-.83.48.5,1.15.82,1.89.83l1.49.07c-.94-.06-1.47-.07-1.49-.07h0Z"/>
    <path class="cls-3" d="m602.63,10.26H14.84c-2.33,0-4.21,1.89-4.21,4.21v140.59h9.7c1.36-1.39,2.74-2.57,4.12-3.59.29-.35.61-.69.99-.98,2.28-1.76,5.59-3.42,8.66-4.48-.21-.17-.41-.33-.62-.5-2.44-2.11-4.83-4.64-6.78-7.7-2.6-4.05-4.43-9.03-4.59-14.84-.03-1.31.86-2.45,2.14-2.72.07-.01.51-.1,1.25-.19.99-.63,2.15-.98,3.35-.98,3.5,0,8.44,1.17,13.58,3.21,2.82,1.12,5.65,2.89,8.69,5.45.73.54,1.45,1.11,2.18,1.72-.02-.7-.03-1.46-.03-2.26,0-10.59,1.44-29.02,9.54-49.51,2.05-5.18,4.52-10.49,7.5-15.83,9.54-17.88,22.27-32.92,38.02-44.81,1.1-.83,2.41-1.27,3.79-1.27.22,0,.44.03.65.06.61-.24,1.29-.26,1.91-.04.73.27,1.29.84,1.57,1.56,1.01.88,1.75,2.07,2.03,3.45.55,2.7,4.49,22.26,5.1,36.15,3.84-4.61,9.46-10.76,16.82-17.25,6.52-5.77,14.53-11.21,25.19-17.13,9.08-5.04,18.19-8.48,27.08-10.23.4-.08.81-.12,1.21-.12,1.16,0,2.24.32,3.18.87.19.09.37.2.53.33.03.03.06.06.09.09,1.51,1.15,2.49,2.96,2.49,4.99v.31c.01,7.22-.73,21.02-5.44,37.02,2.32-.61,5.4-1.4,9.18-2.29,16.19-3.81,32.25-4.23,38.41-4.23,2.04,0,3.91.04,5.28.12,1.81.1,3.48.98,4.59,2.41,1.11,1.43,1.56,3.26,1.22,5.04-1.17,6.19-5.82,27.58-16.27,42.88l-.07.11c-.07.11-.14.25-.19.38,3.42,4.19,9.91,16.46,12.34,23.46l.02.07c.24.66,1.24,2.69,2.82,3.7,1.63,1.04,4.26,2.07,6.59,2.98,2.17.85,4.05,1.58,5.49,2.44,1.86,1.1,7.54,4.46,8.36,12.22.02.23.04.46.04.68v9.26h334.52V14.47c0-2.32-1.89-4.21-4.21-4.21Zm-230.69,76.42c-.4.18-.85.28-1.33.27-.53,0-1.08-.12-1.64-.37l-10.89-4.2c-.17-.08-.35-.12-.53-.17-.3-.08-.61-.13-.91-.13-.26,0-.53.03-.78.09-.22.05-.44.12-.66.21l-10.89,4.2c-.54.24-1.08.35-1.6.36-.35,0-.68-.03-.99-.12-1.19-.34-2.06-1.36-2.05-2.88l.03-10.74v-3.71s-2.91-3.39-2.91-3.39l-5.79-6.73c-1.22-1.41-.57-3.6,1.24-4.14l3.82-1.13,9.96-2.95,4.16-5.62,4.35-5.87c.53-.71,1.32-1.07,2.12-1.07.69,0,1.37.28,1.88.81.08.08.17.16.24.26l5.42,7.32,3.09,4.17,13.77,4.09c.13.04.24.1.36.16.09.04.18.07.27.12,1.32.8,1.69,2.63.62,3.86l-8.7,10.12.04,14.44c0,1.35-.69,2.3-1.68,2.73Zm224.76-65.73c-.14,0-.29,0-.43,0h-.64c-4.7,0-9.2.21-13.53.61-17.81,1.63-32.51,6.46-44.7,13.28-.91.51-1.81,1.03-2.69,1.56-13.81,8.32-24.29,19.26-32.27,31.02-.29.42-.55.85-.83,1.27-4.25,6.45-7.77,13.11-10.66,19.69-.68,1.54-1.33,3.08-1.95,4.61-.9,2.25-1.72,4.48-2.49,6.68-3.09,8.84-5.15,17.17-6.49,24.13-.73,3.78-1.25,7.14-1.62,9.98-.2,1.51-.36,2.88-.48,4.07l-.22,2.29s0,0,0,0l-.11,1.32-.05.7c0,.11-.02.21-.02.29-.02.36-.03.61-.04.74,0,.03,0,.04,0,.05,0,.02,0,.06,0,.06h0c-.03.73-.34,1.38-.83,1.85-.26.25-.57.44-.92.58-.26.1-.53.17-.82.18-.09,0-.18,0-.26-.01-1.29-.05-2.38-1.01-2.56-2.31-.61-4.4-1.53-8.49-2.69-12.33-.59-1.95-1.24-3.83-1.96-5.64-.9-2.29-1.88-4.48-2.96-6.56-1.17-2.26-2.44-4.39-3.8-6.43-1.19-1.79-2.44-3.5-3.75-5.12-1.81-2.23-3.72-4.32-5.72-6.26-1.91-1.86-3.91-3.59-5.96-5.2-6.26-4.9-13.06-8.69-19.8-11.61-2.84-1.23-5.66-2.31-8.43-3.25-4.93-1.68-9.67-2.92-13.96-3.84-2.36-.51-4.59-.92-6.63-1.25-1.27-.21-2.47-.38-3.59-.53-.3-.04-.58-.08-.86-.11-1.54-.19-2.91-.34-4.07-.44-.24-.02-.48-.04-.71-.06l-1.15-.09c-.12,0-.21-.02-.32-.02-.21-.01-.4-.03-.58-.04l-1.49-.07c-.75-.01-1.41-.33-1.89-.83-.48-.5-.77-1.18-.75-1.93.01-.56.19-1.08.49-1.5.5-.71,1.33-1.17,2.27-1.15.03,0,.56.02,1.5.07,2.61.15,8.48.62,16.09,2.08,1.23.24,2.49.49,3.8.78,12.35,2.75,28.15,8.06,42.02,18.45,9.22,6.92,17.59,16.15,23.31,28.31,1.25,2.65,2.37,5.45,3.36,8.38.45-2.71,1.01-5.69,1.7-8.89,1.96-8.99,4.99-19.68,9.71-30.74,2.85-6.69,6.32-13.51,10.55-20.18,7.47-11.78,17.31-23.05,30.25-32.08,17.23-12.04,39.96-20.02,69.55-20.01h1.11c.65,0,1.23.25,1.69.63.61.5,1,1.25.99,2.1,0,1.49-1.23,2.7-2.72,2.69Z"/>
    <path class="cls-4" d="m613.84,3.26c-2-2.01-4.8-3.26-7.86-3.26H11.12c-3.06,0-5.87,1.25-7.86,3.26C1.25,5.26,0,8.06,0,11.12v234.06c0,3.06,1.25,5.87,3.26,7.86,2,2.01,4.8,3.26,7.86,3.26h594.85c3.06,0,5.87-1.25,7.86-3.26,2.01-2,3.26-4.8,3.26-7.86V11.12c0-3.06-1.25-5.87-3.26-7.86Zm-2.15,241.93c0,1.59-.64,3-1.66,4.04-1.05,1.03-2.46,1.66-4.04,1.66H11.12c-1.59,0-3-.64-4.04-1.66-1.03-1.05-1.66-2.46-1.66-4.04V11.12c0-1.59.64-3,1.66-4.04,1.05-1.03,2.46-1.66,4.04-1.66h594.85c1.59,0,3,.64,4.04,1.66,1.03,1.05,1.66,2.46,1.66,4.04v234.06Z"/>
    <path class="cls-1" d="m598.43,16.16c-.46-.38-1.05-.62-1.7-.63-.37,0-.74,0-1.11,0-29.59,0-52.31,7.97-69.55,20.02-12.93,9.03-22.77,20.3-30.24,32.08-4.22,6.66-7.69,13.49-10.55,20.18-4.72,11.06-7.76,21.76-9.71,30.74-.7,3.2-1.26,6.18-1.7,8.89,0,0,0,0,0,0-.98-2.94-2.11-5.73-3.36-8.39-5.73-12.16-14.08-21.38-23.32-28.31-13.86-10.39-29.66-15.69-42.01-18.45-1.31-.29-2.58-.55-3.8-.79-7.61-1.47-13.47-1.94-16.09-2.08-.94-.05-1.47-.06-1.5-.07-.93-.02-1.77.44-2.27,1.15-.3.43-.48.94-.49,1.5-.02.75.27,1.43.75,1.93.48.5,1.15.82,1.9.83h0s0,0,0,0h0s.54.01,1.49.07c.18.01.37.02.58.04.6.04,1.34.1,2.17.17,1.16.1,2.52.25,4.07.44.28.04.57.07.86.11,1.12.15,2.31.32,3.59.53,2.04.33,4.27.74,6.63,1.25,4.29.92,9.03,2.16,13.96,3.84,2.77.94,5.59,2.02,8.43,3.25,6.73,2.92,13.54,6.71,19.8,11.61,2.05,1.61,4.05,3.34,5.96,5.2,2,1.94,3.91,4.03,5.72,6.26,1.31,1.62,2.56,3.33,3.75,5.12,1.35,2.03,2.63,4.16,3.8,6.42,1.08,2.08,2.06,4.28,2.96,6.57.71,1.81,1.37,3.69,1.96,5.64,1.16,3.83,2.08,7.93,2.7,12.32.18,1.3,1.27,2.26,2.56,2.32.09,0,.17.02.26.01.29-.02.56-.08.82-.18.34-.13.66-.33.92-.58.49-.47.8-1.12.83-1.85h0s0-.04,0-.06c.02-.41.18-3.91.92-9.49.37-2.84.9-6.2,1.62-9.98,1.34-6.96,3.4-15.29,6.49-24.13.77-2.2,1.58-4.42,2.49-6.68.61-1.53,1.27-3.07,1.95-4.61,2.9-6.58,6.41-13.24,10.66-19.69.28-.42.55-.85.83-1.27,7.98-11.76,18.46-22.7,32.27-31.02.88-.53,1.78-1.05,2.69-1.56,12.19-6.82,26.89-11.65,44.7-13.28,4.32-.4,8.83-.61,13.53-.61.21,0,.43,0,.64,0,.14,0,.28,0,.43,0,1.49.01,2.71-1.19,2.72-2.69,0-.85-.39-1.6-.99-2.1Z"/>
    <path class="cls-1" d="m382.28,59.39c1.07-1.24.7-3.06-.62-3.86-.08-.05-.18-.08-.27-.12-.12-.05-.23-.12-.36-.16l-13.77-4.09h0s-3.09-4.17-3.09-4.17l-5.42-7.32c-.07-.1-.16-.17-.24-.26-.51-.53-1.19-.81-1.88-.81-.8,0-1.59.35-2.12,1.07l-4.35,5.87-4.16,5.62-9.96,2.95-3.82,1.13c-1.81.54-2.47,2.73-1.24,4.14l5.79,6.73,2.91,3.39h0s0,3.71,0,3.71l-.03,10.74c0,1.52.86,2.53,2.05,2.88.31.09.64.13.99.12.51-.01,1.06-.12,1.6-.36l10.89-4.2c.21-.1.43-.16.66-.21.26-.06.52-.09.79-.09.31,0,.61.05.91.13.18.05.36.09.53.17l10.89,4.2c.56.25,1.11.36,1.64.37.48,0,.92-.1,1.33-.27.99-.43,1.68-1.38,1.68-2.73l-.04-14.44,8.7-10.12Z"/>
    <path class="cls-4" d="m47.46,179.58h-14.4c-4.17,0-6.91,1.66-6.91,6.93v38.09c0,5.27,2.74,6.93,6.91,6.93h14.19c15.76,0,24.91-9.53,24.91-25.98,0-20.35-11.81-25.98-24.69-25.98Zm.43,42.43h-9.94v-32.9h9.87c8.64,0,12.52,6.21,12.52,16.45,0,8.01-3.03,16.45-12.46,16.45Z"/>
    <path class="cls-4" d="m121.84,178.65c-2.45,0-3.74.87-5.11,3.46l-10.22,18.98-10.3-18.98c-1.22-2.31-2.52-3.46-5.33-3.46-2.3,0-5.98,1.37-5.98,5.41,0,1.08.43,2.16,1.01,3.1l14.47,24.1v15.3c0,3.54,2.3,5.92,5.9,5.92s5.9-2.38,5.9-5.92v-15.3l14.47-24.1c.58-.94,1.01-2.02,1.01-3.1,0-4.04-3.67-5.41-5.83-5.41Z"/>
    <path class="cls-4" d="m184.41,178.65c-3.53,0-5.69,1.88-5.69,5.7v30.81h-.14l-20.66-33.41c-1.3-2.16-3.46-3.1-5.9-3.1-5.04,0-7.42,2.02-7.42,6.93v41.2c0,3.82,2.16,5.7,5.69,5.7s5.69-1.88,5.69-5.7v-29.94h.14l20.52,32.47c1.51,2.38,2.74,3.17,6.48,3.17,4.97,0,6.98-2.67,6.98-7.36v-40.77c0-3.82-2.16-5.7-5.69-5.7Z"/>
    <path class="cls-4" d="m235.75,178.36c-16.99,0-26.21,11.33-26.21,26.56s7.64,27.85,26.21,27.85,26.2-13.2,26.2-27.85-9.21-26.56-26.2-26.56Zm0,44.88c-11.08,0-14.4-8.36-14.4-18.32s4.76-17.03,14.4-17.03,14.4,7.07,14.4,17.03-3.67,18.32-14.4,18.32Z"/>
    <path class="cls-4" d="m306.67,179.58h-18.08c-4.17,0-6.9,1.66-6.9,6.93v40.04c0,3.54,2.3,5.92,5.9,5.92s5.9-2.38,5.9-5.92v-14.06h13.1c11.45,0,18-7,18-16.46,0-11.54-7.99-16.45-17.93-16.45Zm-2.15,23.81h-11.02v-14.72h9.79c5.83,0,9.5,2.16,9.5,7.35,0,4.47-3.53,7.36-8.27,7.36Z"/>
    <path class="cls-4" d="m382.56,178.64c-3.59,0-5.9,2.39-5.9,5.92v28.43c0,7.07-3.96,10.24-10.72,10.24s-10.73-3.17-10.73-10.24v-28.43c0-3.53-2.3-5.92-5.9-5.92s-5.9,2.39-5.9,5.92v27.49c0,14.29,8.78,20.71,22.54,20.71s22.53-6.42,22.53-20.71v-27.49c0-3.53-2.3-5.92-5.9-5.92Z"/>
    <path class="cls-4" d="m450.03,178.64c-3.53,0-5.69,1.88-5.69,5.71v30.8h-.15l-20.66-33.41c-1.3-2.16-3.46-3.1-5.9-3.1-5.04,0-7.42,2.03-7.42,6.93v41.2c0,3.82,2.16,5.7,5.69,5.7s5.69-1.88,5.69-5.7v-29.95h.15l20.51,32.47c1.52,2.39,2.74,3.18,6.48,3.18,4.97,0,6.98-2.67,6.98-7.36v-40.76c0-3.83-2.15-5.71-5.68-5.71Z"/>
    <path class="cls-4" d="m501.22,187.89c10.8,0,8.78,9.38,15.63,9.38,3.53,0,5.33-2.03,5.33-5.35,0-5.04-7.42-13.56-20.95-13.56-16.7,0-25.34,12.55-25.34,27.2,0,17.9,9.58,27.2,25.77,27.2,11.45,0,20.52-7.43,20.52-14.93,0-2.89-2.88-4.54-5.76-4.54-5.69,0-5.47,9.95-14.77,9.95-10.22,0-13.96-8.23-13.96-17.67,0-11.25,6.12-17.67,13.53-17.67Z"/>
    <path class="cls-4" d="m579.7,178.64c-3.6,0-5.9,2.39-5.9,5.92v14.72h-21.45v-14.72c0-3.53-2.31-5.92-5.9-5.92s-5.9,2.39-5.9,5.92v41.99c0,3.54,2.3,5.92,5.9,5.92s5.9-2.38,5.9-5.92v-17.31h21.45v17.31c0,3.54,2.3,5.92,5.9,5.92s5.9-2.38,5.9-5.92v-41.99c0-3.53-2.3-5.92-5.9-5.92Z"/>
    <path class="cls-4" d="m261.14,137.6c-2.47-1.47-8.59-3.18-12.23-5.51-3.64-2.33-5.06-6.57-5.06-6.57-2.43-6.98-9-19.12-11.62-22.05-2.63-2.93.2-6.78.2-6.78,10.06-14.73,14.53-36.18,15.41-40.82.1-.49-.25-.94-.75-.98-5.17-.29-23.95-.3-42.11,3.98-8.63,2.03-13.53,3.49-13.9,3.59,0,0-.03,0-.04.02-.99.34-2.11.91-2.84.18-.74-.75-1-1.85-.66-2.84,6.14-17.73,7-33.63,6.98-41v-.31c0-.51-.47-.91-.98-.81-8.98,1.77-17.56,5.25-25.48,9.65-9.08,5.04-17.34,10.36-24.22,16.45-13.79,12.16-21.31,23.2-21.5,23.45h0c-.73,1.02-2.07,1.39-3.22.95-1.17-.46-1.64-1.58-1.42-2.81,1.71-10.03-3.42-37.03-4.74-43.49-.13-.6-.83-.86-1.31-.49-23.31,17.61-36.09,39.43-43.56,58.28-7.9,19.99-9.02,37.9-9.02,48.2,0,2.75.11,4.95.22,6.48.1,1.52.2,2.37.21,2.42.16,1.2-.49,2.36-1.59,2.86s-2.41.23-3.2-.68c-5.12-5.77-9.66-9.79-14.26-11.6-4.58-1.82-8.89-2.83-11.55-2.83h0c-.51,0-.88.48-.8.99.57,3.29,1.77,6.17,3.39,8.7,0,0,5.83,10.24,18.55,14.68,0,0,1.51.37,2.45,1.92.94,1.54-.1,3.36-1.65,3.63-1.54.28-3.41-.22-4.45-.77-1.04-.57-4.33-2.89-6.25-3.34-1.63-.38-7.91,1.84-11.31,4.47-.63.48-.29,1.49.5,1.49h236.75c.45,0,.82-.37.82-.83v-9.78c-.48-4.47-3.24-6.62-5.72-8.09Zm-41.22,3.65c-2.99,1.53-9.3-4.63-14.11-13.74-4.8-9.12-6.28-17.73-3.29-19.25,2.99-1.53,9.29,4.62,14.1,13.74,4.8,9.11,6.29,17.73,3.3,19.25Z"/>
    <path class="cls-1" d="m219.91,141.26c-2.99,1.53-9.3-4.63-14.11-13.74-4.8-9.12-6.28-17.73-3.29-19.25,2.99-1.53,9.29,4.62,14.1,13.74,4.8,9.11,6.29,17.73,3.3,19.25Z"/>
  </g>
</svg>