<?xml version="1.0" encoding="UTF-8"?>
<svg xmlns="http://www.w3.org/2000/svg" viewBox="0 0 174.93 174.93">
  <defs>
    <style>
      .cls-1 {
        fill: #fdcb96;
      }

      .cls-1, .cls-2 {
        stroke-width: 0px;
      }

      .cls-3 {
        fill: none;
        stroke: #f9f1c8;
        stroke-miterlimit: 10;
        stroke-width: 3px;
      }

      .cls-2 {
        fill: #f9f1c8;
      }
    </style>
  </defs>
  <g id="Layer_2" data-name="Layer 2">
    <rect class="cls-2" x="15.47" y="15.47" width="144" height="144"/>
  </g>
  <g id="Layer_1" data-name="Layer 1">
    <circle class="cls-1" cx="51.47" cy="51.47" r="36"/>
    <circle class="cls-3" cx="51.47" cy="51.47" r="31.5"/>
    <polygon class="cls-2" points="61.01 41.93 78.46 51.47 61.01 61.01 51.47 78.46 41.93 61.01 24.48 51.47 41.93 41.93 51.47 24.48 61.01 41.93"/>
    <circle class="cls-1" cx="123.47" cy="51.47" r="36"/>
    <circle class="cls-3" cx="123.47" cy="51.47" r="31.5"/>
    <polygon class="cls-2" points="133.01 41.93 150.46 51.47 133.01 61.01 123.47 78.46 113.93 61.01 96.48 51.47 113.93 41.93 123.47 24.48 133.01 41.93"/>
    <circle class="cls-1" cx="51.47" cy="123.47" r="36"/>
    <circle class="cls-3" cx="51.47" cy="123.47" r="31.5"/>
    <polygon class="cls-2" points="61.01 113.93 78.46 123.47 61.01 133.01 51.47 150.46 41.93 133.01 24.48 123.47 41.93 113.93 51.47 96.48 61.01 113.93"/>
    <circle class="cls-1" cx="123.47" cy="123.47" r="36"/>
    <circle class="cls-3" cx="123.47" cy="123.47" r="31.5"/>
    <polygon class="cls-2" points="133.01 113.93 150.46 123.47 133.01 133.01 123.47 150.46 113.93 133.01 96.48 123.47 113.93 113.93 123.47 96.48 133.01 113.93"/>
    <path class="cls-1" d="m82.34,81.37l5.13-9.37,5.13,9.37c.22.41.56.75.97.97l9.37,5.13-9.37,5.13c-.41.22-.75.56-.97.97l-5.13,9.37-5.13-9.37c-.22-.41-.56-.75-.97-.97l-9.37-5.13,9.37-5.13c.41-.22.75-.56.97-.97Z"/>
    <path class="cls-1" d="m154.34,153.37l5.13-9.37,5.13,9.37c.22.41.56.75.97.97l9.37,5.13-9.37,5.13c-.41.22-.75.56-.97.97l-5.13,9.37-5.13-9.37c-.22-.41-.56-.75-.97-.97l-9.37-5.13,9.37-5.13c.41-.22.75-.56.97-.97Z"/>
    <path class="cls-1" d="m154.34,9.37l5.13-9.37,5.13,9.37c.22.41.56.75.97.97l9.37,5.13-9.37,5.13c-.41.22-.75.56-.97.97l-5.13,9.37-5.13-9.37c-.22-.41-.56-.75-.97-.97l-9.37-5.13,9.37-5.13c.41-.22.75-.56.97-.97Z"/>
    <path class="cls-1" d="m10.34,9.37L15.47,0l5.13,9.37c.22.41.56.75.97.97l9.37,5.13-9.37,5.13c-.41.22-.75.56-.97.97l-5.13,9.37-5.13-9.37c-.22-.41-.56-.75-.97-.97L0,15.47l9.37-5.13c.41-.22.75-.56.97-.97Z"/>
    <path class="cls-1" d="m10.34,153.37l5.13-9.37,5.13,9.37c.22.41.56.75.97.97l9.37,5.13-9.37,5.13c-.41.22-.75.56-.97.97l-5.13,9.37-5.13-9.37c-.22-.41-.56-.75-.97-.97L0,159.47l9.37-5.13c.41-.22.75-.56.97-.97Z"/>
  </g>
</svg>